<svg width="24" height="24" xmlns="http://www.w3.org/2000/svg"><title>Foundation / Icon / 24 / Control / Filter / Default</title><g fill="none" fill-rule="evenodd"><path d="M0 0h24v24H0z"/><path d="M3.55 5.5H1.5v-1h2.05a2.5 2.5 0 0 1 4.9 0H21.5v1H8.45a2.5 2.5 0 0 1-4.9 0zM6 6.5a1.5 1.5 0 1 0 0-3 1.5 1.5 0 0 0 0 3zm7.55 6H1.5v-1h12.05a2.5 2.5 0 0 1 4.9 0h3.05v1h-3.05a2.5 2.5 0 0 1-4.9 0zm2.45 1a1.5 1.5 0 1 0 0-3 1.5 1.5 0 0 0 0 3zm-8.45 6H1.5v-1h6.05a2.5 2.5 0 0 1 4.9 0h9.05v1h-9.05a2.5 2.5 0 0 1-4.9 0zm2.45 1a1.5 1.5 0 1 0 0-3 1.5 1.5 0 0 0 0 3z" fill="#222"/></g></svg>